<?xml version="1.0" encoding="utf-8"?>
<!-- Generator: Adobe Illustrator 15.0.0, SVG Export Plug-In . SVG Version: 6.00 Build 0)  -->
<!DOCTYPE svg PUBLIC "-//W3C//DTD SVG 1.1//EN" "http://www.w3.org/Graphics/SVG/1.1/DTD/svg11.dtd">
<svg version="1.1" id="Layer_1" xmlns="http://www.w3.org/2000/svg" xmlns:xlink="http://www.w3.org/1999/xlink" x="0px" y="0px"
	 width="158.4px" height="57.6px" viewBox="0 0 158.4 57.6" enable-background="new 0 0 158.4 57.6" xml:space="preserve">
<path fill="none" stroke="#000000" stroke-linejoin="round" stroke-miterlimit="10" d="M13.28,33.98c0,0,25.905-22.387,43.75-31.774
	c-8.635,7.883-23.314,25.44-29.071,31.774C22.203,40.312,4.976,59.394,1.768,57.463c-5.216-3.139,10.074-15.424,15.831-20.031
	c5.757-4.604,15.543-10.073,22.451-12.663"/>
<path fill="none" stroke="#000000" stroke-linejoin="round" stroke-miterlimit="10" d="M46.371,36.132c0,0,9.221-5.895,8.357-11.363
	c-0.864-5.469-8.963-1.863-10.938,1.439c-2.21,3.695-1.601,12.952,11.001,10.362c12.601-2.59,24.423-20.436,24.557-21.3
	c0.134-0.863-13.861,11.226-18.233,17.559c0,0-0.854,2.854-4.732,2.949c-5.828,0.145,14.681-9.57,20.221-10.865
	c5.54-1.295-0.936,6.188-8.275,9.643c-0.216,0.144,14.536-9.49,16.55-8.451c2.015,1.039-3.958,7.083-5.109,7.947
	c-1.152,0.864,1.615-0.359,5.521-3.453c3.905-3.095,6.713-4.894,8.079-4.102c1.366,0.791-4.894,8.633-5.542,9.138
	c-0.646,0.503,3.742-1.8,6.549-3.598c2.807-1.799,5.9-2.447,5.973-1.583c0.072,0.863-0.576,2.016-1.871,3.31
	c-1.295,1.295,1.811,0.433,1.876,1.512c0.499,0.216,8.486-6.261,14.314-11.658c5.828-5.396,13.816-10.146,14.896-10.793
	s-9.714,13.946-12.521,17.012c-2.806,3.064-6.692,7.775-8.852,7.146c-2.158-0.628,10.291-14.876,30.439-22.863
	c0.863-0.216-18.781,20.939-20.725,21.803c-1.942,0.864,7.987-8.937,8.636-6.087c0.647,2.849-2.591,3.928-2.591,3.928
	s18.349-12.952,25.258-17.27c0.862-0.864-26.337,28.063-32.598,31.517c-6.261,3.455,2.807-6.906,8.851-11.656
	c6.045-4.749,8.852-3.022,9.931,1.511c1.079,4.534,4.749,0.648,5.829-1.078"/>
<path fill="none" stroke="#000000" stroke-linejoin="round" stroke-miterlimit="10" d="M107.545,27.071c0,0,1.17-1.511,10.362-3.238
	c6.842-1.286,33.029-6.26,39.721-6.692"/>
<path fill="none" stroke="#000000" stroke-linejoin="round" stroke-miterlimit="10" d="M106.682,25.561c0,0-1.295-3.455,2.807-5.613
	"/>
<path fill="none" stroke="#000000" stroke-linejoin="round" stroke-miterlimit="10" d="M51.85,40.023c0,0,0.233-3.157,4.317-5.176"
	/>
</svg>
